<svg width="352" height="52" viewBox="0 0 352 52" fill="none" xmlns="http://www.w3.org/2000/svg">
<g filter="url(#filter0_d_90_186)">
<rect x="4" width="344" height="44" rx="8" fill="#FEE500"/>
<path opacity="0.902" fill-rule="evenodd" clip-rule="evenodd" d="M31.5802 13C26.0692 13 21.0496 17.035 21.0496 20.4487C21.0496 23.0066 22.8725 25.2629 25.6491 26.6036L24.4814 30.5108C24.3772 30.8572 24.809 31.1321 25.1401 30.9328L30.2615 27.8367C30.6933 27.8751 31.1332 27.8975 31.5802 27.8975C37.3954 27.8975 42.1108 24.5627 42.1108 20.4487C42.1108 17.035 37.3954 13 31.5802 13Z" fill="black"/>
<path d="M133.393 23.32C134.242 22.8627 134.947 22.4567 135.507 22.102C136.067 21.738 136.519 21.402 136.865 21.094C137.219 20.786 137.481 20.492 137.649 20.212C137.826 19.932 137.947 19.6427 138.013 19.344L133.281 19.456L133.253 18.574L138.097 18.49V16.18H133.519V15.284H139.063V18.056C139.063 18.4573 139.039 18.8307 138.993 19.176C138.955 19.512 138.871 19.8387 138.741 20.156C138.61 20.464 138.428 20.7673 138.195 21.066C137.961 21.3553 137.649 21.6587 137.257 21.976C136.874 22.2933 136.403 22.6293 135.843 22.984C135.292 23.3293 134.629 23.7073 133.855 24.118L133.393 23.32ZM142.815 18.938H144.943V19.82H142.815V26.904H141.821V14.108H142.815V18.938ZM146.135 23.32C146.984 22.8627 147.689 22.4567 148.249 22.102C148.809 21.738 149.261 21.402 149.607 21.094C149.961 20.786 150.223 20.492 150.391 20.212C150.568 19.932 150.689 19.6427 150.755 19.344L146.023 19.456L145.995 18.574L150.839 18.49V16.18H146.261V15.284H151.805V18.056C151.805 18.4573 151.781 18.8307 151.735 19.176C151.697 19.512 151.613 19.8387 151.483 20.156C151.352 20.464 151.17 20.7673 150.937 21.066C150.703 21.3553 150.391 21.6587 149.999 21.976C149.616 22.2933 149.145 22.6293 148.585 22.984C148.034 23.3293 147.371 23.7073 146.597 24.118L146.135 23.32ZM155.557 18.938H157.685V19.82H155.557V26.904H154.563V14.108H155.557V18.938ZM160.067 17.916C160.067 17.4587 160.179 17.048 160.403 16.684C160.627 16.3107 160.93 15.9933 161.313 15.732C161.696 15.4613 162.139 15.256 162.643 15.116C163.156 14.9667 163.702 14.892 164.281 14.892C164.85 14.892 165.387 14.9667 165.891 15.116C166.404 15.256 166.852 15.4613 167.235 15.732C167.627 15.9933 167.935 16.3107 168.159 16.684C168.383 17.048 168.495 17.4587 168.495 17.916V18.602C168.495 19.022 168.397 19.4093 168.201 19.764C168.005 20.1187 167.739 20.4267 167.403 20.688C167.067 20.94 166.675 21.15 166.227 21.318C165.779 21.4767 165.298 21.5747 164.785 21.612V24.244H170.161V25.098H158.401V24.244H163.777V21.612C163.254 21.5747 162.769 21.4767 162.321 21.318C161.873 21.15 161.481 20.94 161.145 20.688C160.809 20.4267 160.543 20.1187 160.347 19.764C160.16 19.4093 160.067 19.022 160.067 18.602V17.916ZM164.281 15.802C163.824 15.802 163.399 15.858 163.007 15.97C162.615 16.0727 162.274 16.222 161.985 16.418C161.696 16.6047 161.467 16.8287 161.299 17.09C161.131 17.3513 161.047 17.6407 161.047 17.958V18.56C161.047 18.8773 161.131 19.1667 161.299 19.428C161.467 19.6893 161.696 19.918 161.985 20.114C162.274 20.3007 162.615 20.45 163.007 20.562C163.399 20.6647 163.824 20.716 164.281 20.716C164.729 20.716 165.149 20.6647 165.541 20.562C165.942 20.45 166.288 20.3007 166.577 20.114C166.866 19.918 167.095 19.6893 167.263 19.428C167.431 19.1667 167.515 18.8773 167.515 18.56V17.958C167.515 17.6407 167.431 17.3513 167.263 17.09C167.095 16.8287 166.866 16.6047 166.577 16.418C166.288 16.222 165.942 16.0727 165.541 15.97C165.149 15.858 164.729 15.802 164.281 15.802ZM184.625 15.116V18.91H177.345V20.982H184.919V21.836H181.013V24.244H186.403V25.098H174.643V24.244H180.033V21.836H176.379V18.07H183.659V15.97H176.337V15.116H184.625ZM195.743 22.872C195.837 22.4147 195.916 21.976 195.981 21.556C196.047 21.1267 196.098 20.702 196.135 20.282C196.182 19.8527 196.215 19.4187 196.233 18.98C196.261 18.532 196.275 18.0607 196.275 17.566V16.236H188.869V15.368H197.297V17.048C197.297 18.224 197.255 19.288 197.171 20.24C197.087 21.192 196.957 22.1113 196.779 22.998L195.743 22.872ZM199.145 24.244V25.098H187.385V24.244H199.145ZM203.865 25.882H211.019V26.75H202.871V22.564H203.865V25.882ZM210.697 23.264H209.717V14.108H210.697V23.264ZM203.865 21.136C203.389 21.136 202.955 21.0567 202.563 20.898C202.171 20.73 201.84 20.5153 201.569 20.254C201.299 19.9833 201.089 19.68 200.939 19.344C200.79 19.008 200.715 18.6673 200.715 18.322V17.482C200.715 17.1367 200.79 16.796 200.939 16.46C201.089 16.124 201.299 15.8253 201.569 15.564C201.84 15.2933 202.171 15.0787 202.563 14.92C202.955 14.752 203.389 14.668 203.865 14.668C204.341 14.668 204.775 14.752 205.167 14.92C205.559 15.0787 205.891 15.2933 206.161 15.564C206.432 15.8253 206.642 16.124 206.791 16.46C206.941 16.796 207.015 17.1367 207.015 17.482V18.322C207.015 18.6673 206.941 19.008 206.791 19.344C206.642 19.68 206.432 19.9833 206.161 20.254C205.891 20.5153 205.559 20.73 205.167 20.898C204.775 21.0567 204.341 21.136 203.865 21.136ZM203.865 15.55C203.539 15.55 203.24 15.606 202.969 15.718C202.699 15.83 202.465 15.9793 202.269 16.166C202.083 16.3527 201.933 16.5673 201.821 16.81C201.719 17.0527 201.667 17.3047 201.667 17.566V18.238C201.667 18.4993 201.719 18.7513 201.821 18.994C201.933 19.2367 202.083 19.4513 202.269 19.638C202.465 19.8247 202.699 19.974 202.969 20.086C203.24 20.198 203.539 20.254 203.865 20.254C204.192 20.254 204.491 20.198 204.761 20.086C205.032 19.974 205.261 19.8247 205.447 19.638C205.643 19.4513 205.793 19.2367 205.895 18.994C206.007 18.7513 206.063 18.4993 206.063 18.238V17.566C206.063 17.3047 206.007 17.0527 205.895 16.81C205.793 16.5673 205.643 16.3527 205.447 16.166C205.261 15.9793 205.032 15.83 204.761 15.718C204.491 15.606 204.192 15.55 203.865 15.55Z" fill="black"/>
</g>
<defs>
<filter id="filter0_d_90_186" x="0" y="0" width="352" height="52" filterUnits="userSpaceOnUse" color-interpolation-filters="sRGB">
<feFlood flood-opacity="0" result="BackgroundImageFix"/>
<feColorMatrix in="SourceAlpha" type="matrix" values="0 0 0 0 0 0 0 0 0 0 0 0 0 0 0 0 0 0 127 0" result="hardAlpha"/>
<feOffset dy="4"/>
<feGaussianBlur stdDeviation="2"/>
<feComposite in2="hardAlpha" operator="out"/>
<feColorMatrix type="matrix" values="0 0 0 0 0 0 0 0 0 0 0 0 0 0 0 0 0 0 0.25 0"/>
<feBlend mode="normal" in2="BackgroundImageFix" result="effect1_dropShadow_90_186"/>
<feBlend mode="normal" in="SourceGraphic" in2="effect1_dropShadow_90_186" result="shape"/>
</filter>
</defs>
</svg>
