<svg width="30" height="30" viewBox="0 0 30 30" fill="none" xmlns="http://www.w3.org/2000/svg">
<path d="M7.5 2.5H17.5L25 10V25C25 25.663 24.7366 26.2989 24.2678 26.7678C23.7989 27.2366 23.163 27.5 22.5 27.5H7.5C6.83696 27.5 6.20107 27.2366 5.73223 26.7678C5.26339 26.2989 5 25.663 5 25V5C5 4.33696 5.26339 3.70107 5.73223 3.23223C6.20107 2.76339 6.83696 2.5 7.5 2.5Z" stroke="#B4D4FF" stroke-width="2" stroke-linecap="round" stroke-linejoin="round"/>
<path d="M17.5 2.5V10H25" stroke="#B4D4FF" stroke-width="2" stroke-linecap="round" stroke-linejoin="round"/>
<path d="M20 16.25H10" stroke="#B4D4FF" stroke-width="2" stroke-linecap="round" stroke-linejoin="round"/>
<path d="M20 21.25H10" stroke="#B4D4FF" stroke-width="2" stroke-linecap="round" stroke-linejoin="round"/>
<path d="M12.5 11.25H11.25H10" stroke="#B4D4FF" stroke-width="2" stroke-linecap="round" stroke-linejoin="round"/>
</svg>
