<svg width="20" height="20" viewBox="0 0 20 20" fill="none" xmlns="http://www.w3.org/2000/svg">
<g clip-path="url(#clip0_97_212)">
<path d="M15.8333 3.33333H15.41L13.59 0.973333C13.3554 0.671505 13.0553 0.427014 12.7122 0.258378C12.3692 0.0897429 11.9923 0.00138587 11.61 0L8.39 0C8.00775 0.00138587 7.63082 0.0897429 7.28778 0.258378C6.94473 0.427014 6.64456 0.671505 6.41 0.973333L4.59 3.33333H4.16667C3.062 3.33466 2.00296 3.77407 1.22185 4.55518C0.440735 5.3363 0.00132321 6.39534 0 7.5L0 15.8333C0.00132321 16.938 0.440735 17.997 1.22185 18.7782C2.00296 19.5593 3.062 19.9987 4.16667 20H15.8333C16.938 19.9987 17.997 19.5593 18.7782 18.7782C19.5593 17.997 19.9987 16.938 20 15.8333V7.5C19.9987 6.39534 19.5593 5.3363 18.7782 4.55518C17.997 3.77407 16.938 3.33466 15.8333 3.33333V3.33333ZM7.73 1.99167C7.80806 1.89088 7.90808 1.80922 8.02244 1.7529C8.13681 1.69658 8.26252 1.66709 8.39 1.66667H11.61C11.7375 1.66721 11.8631 1.69676 11.9775 1.75307C12.0918 1.80938 12.1919 1.89097 12.27 1.99167L13.305 3.33333H6.695L7.73 1.99167ZM18.3333 15.8333C18.3333 16.4964 18.0699 17.1323 17.6011 17.6011C17.1323 18.0699 16.4964 18.3333 15.8333 18.3333H4.16667C3.50363 18.3333 2.86774 18.0699 2.3989 17.6011C1.93006 17.1323 1.66667 16.4964 1.66667 15.8333V7.5C1.66667 6.83696 1.93006 6.20107 2.3989 5.73223C2.86774 5.26339 3.50363 5 4.16667 5H15.8333C16.4964 5 17.1323 5.26339 17.6011 5.73223C18.0699 6.20107 18.3333 6.83696 18.3333 7.5V15.8333Z" fill="#B4D4FF"/>
<path d="M9.99995 6.66663C9.01104 6.66663 8.04434 6.95987 7.22209 7.50928C6.39985 8.05869 5.75899 8.83958 5.38055 9.75321C5.00211 10.6668 4.90309 11.6722 5.09602 12.6421C5.28894 13.612 5.76515 14.5029 6.46441 15.2022C7.16367 15.9014 8.05459 16.3776 9.02449 16.5706C9.9944 16.7635 10.9997 16.6645 11.9134 16.286C12.827 15.9076 13.6079 15.2667 14.1573 14.4445C14.7067 13.6222 14.9999 12.6555 14.9999 11.6666C14.9986 10.341 14.4714 9.06995 13.534 8.13255C12.5966 7.19516 11.3256 6.66795 9.99995 6.66663V6.66663ZM9.99995 15C9.34067 15 8.69621 14.8045 8.14804 14.4382C7.59988 14.0719 7.17264 13.5513 6.92035 12.9422C6.66805 12.3332 6.60204 11.6629 6.73066 11.0163C6.85928 10.3697 7.17675 9.77578 7.64292 9.3096C8.1091 8.84343 8.70304 8.52596 9.34964 8.39734C9.99625 8.26872 10.6665 8.33474 11.2756 8.58703C11.8846 8.83932 12.4052 9.26656 12.7715 9.81473C13.1378 10.3629 13.3333 11.0074 13.3333 11.6666C13.3333 12.5507 12.9821 13.3985 12.357 14.0236C11.7318 14.6488 10.884 15 9.99995 15Z" fill="#B4D4FF"/>
</g>
<defs>
<clipPath id="clip0_97_212">
<rect width="20" height="20" fill="white"/>
</clipPath>
</defs>
</svg>
