<svg width="45" height="45" viewBox="0 0 45 45" fill="none" xmlns="http://www.w3.org/2000/svg">
<g clip-path="url(#clip0_98_312)">
<path d="M43.125 20.625H24.375V1.875C24.375 1.37772 24.1775 0.900806 23.8258 0.549175C23.4742 0.197544 22.9973 0 22.5 0V0C22.0027 0 21.5258 0.197544 21.1742 0.549175C20.8225 0.900806 20.625 1.37772 20.625 1.875V20.625H1.875C1.37772 20.625 0.900806 20.8225 0.549175 21.1742C0.197544 21.5258 0 22.0027 0 22.5H0C0 22.9973 0.197544 23.4742 0.549175 23.8258C0.900806 24.1775 1.37772 24.375 1.875 24.375H20.625V43.125C20.625 43.6223 20.8225 44.0992 21.1742 44.4508C21.5258 44.8025 22.0027 45 22.5 45C22.9973 45 23.4742 44.8025 23.8258 44.4508C24.1775 44.0992 24.375 43.6223 24.375 43.125V24.375H43.125C43.6223 24.375 44.0992 24.1775 44.4508 23.8258C44.8025 23.4742 45 22.9973 45 22.5C45 22.0027 44.8025 21.5258 44.4508 21.1742C44.0992 20.8225 43.6223 20.625 43.125 20.625Z" fill="white"/>
</g>
<defs>
<clipPath id="clip0_98_312">
<rect width="45" height="45" fill="white"/>
</clipPath>
</defs>
</svg>
